<svg width="22" height="22" viewBox="0 0 22 22" fill="none" xmlns="http://www.w3.org/2000/svg">
<path d="M15.5 17.75H6.50001M15.5 17.75C17.1569 17.75 18.5 19.0931 18.5 20.75H3.50001C3.50001 19.0931 4.84316 17.75 6.50001 17.75M15.5 17.75V14.375C15.5 13.7537 14.9963 13.25 14.375 13.25H13.5034M6.50001 17.75V14.375C6.50001 13.7537 7.00369 13.25 7.62501 13.25H8.49665M13.5034 13.25H8.49665M13.5034 13.25C12.956 12.3038 12.6095 11.227 12.5219 10.0777M8.49665 13.25C9.04398 12.3038 9.39054 11.227 9.47809 10.0777M4.25001 3.23636C3.26771 3.3792 2.29537 3.55275 1.33398 3.75601C1.7843 6.42349 3.99494 8.49282 6.72966 8.72775M4.25001 3.23636V3.5C4.25001 5.60778 5.21612 7.48992 6.72966 8.72775M4.25001 3.23636V1.72089C6.45544 1.41051 8.70898 1.25 11 1.25C13.291 1.25 15.5446 1.41051 17.75 1.72089V3.23636M6.72966 8.72775C7.51724 9.37186 8.45304 9.84151 9.47809 10.0777M17.75 3.23636V3.5C17.75 5.60778 16.7839 7.48992 15.2704 8.72775M17.75 3.23636C18.7323 3.3792 19.7047 3.55275 20.6661 3.75601C20.2157 6.42349 18.0051 8.49282 15.2704 8.72775M15.2704 8.72775C14.4828 9.37186 13.547 9.84151 12.5219 10.0777M12.5219 10.0777C12.0328 10.1904 11.5234 10.25 11 10.25C10.4767 10.25 9.96722 10.1904 9.47809 10.0777" stroke="#9CA3AF" stroke-width="2" stroke-linecap="round" stroke-linejoin="round"/>
</svg>
