<svg width="30" height="22" viewBox="0 0 30 22" fill="none" xmlns="http://www.w3.org/2000/svg">
<path d="M15 15C17.2091 15 19 13.2091 19 11C19 8.79086 17.2091 7 15 7C12.7909 7 11 8.79086 11 11C11 13.2091 12.7909 15 15 15Z" fill="#6B7280"/>
<path fill-rule="evenodd" clip-rule="evenodd" d="M0.764548 10.2623C2.74755 4.30095 8.37055 0 15.0007 0C21.6277 0 27.2486 4.29695 29.2341 10.2539C29.3945 10.7354 29.3947 11.2562 29.2345 11.7377C27.2515 17.6991 21.6285 22 14.9984 22C8.3713 22 2.75045 17.7031 0.764985 11.7461C0.604529 11.2647 0.604377 10.7438 0.764548 10.2623ZM22 11C22 14.866 18.866 18 15 18C11.134 18 8 14.866 8 11C8 7.13401 11.134 4 15 4C18.866 4 22 7.13401 22 11Z" fill="#6B7280"/>
</svg>
