<svg width="26" height="26" viewBox="0 0 26 26" fill="none" xmlns="http://www.w3.org/2000/svg">
<path d="M14 14C14 14.5523 13.5523 15 13 15C12.4477 15 12 14.5523 12 14C12 13.4477 12.4477 13 13 13C13.5523 13 14 13.4477 14 14Z" fill="#6B7280"/>
<path d="M7 18C7.55229 18 8 17.5523 8 17C8 16.4477 7.55229 16 7 16C6.44772 16 6 16.4477 6 17C6 17.5523 6.44772 18 7 18Z" fill="#6B7280"/>
<path d="M8 20C8 20.5523 7.55229 21 7 21C6.44772 21 6 20.5523 6 20C6 19.4477 6.44772 19 7 19C7.55229 19 8 19.4477 8 20Z" fill="#6B7280"/>
<path d="M10 18C10.5523 18 11 17.5523 11 17C11 16.4477 10.5523 16 10 16C9.44772 16 9 16.4477 9 17C9 17.5523 9.44772 18 10 18Z" fill="#6B7280"/>
<path d="M11 20C11 20.5523 10.5523 21 10 21C9.44772 21 9 20.5523 9 20C9 19.4477 9.44772 19 10 19C10.5523 19 11 19.4477 11 20Z" fill="#6B7280"/>
<path d="M13 18C13.5523 18 14 17.5523 14 17C14 16.4477 13.5523 16 13 16C12.4477 16 12 16.4477 12 17C12 17.5523 12.4477 18 13 18Z" fill="#6B7280"/>
<path d="M14 20C14 20.5523 13.5523 21 13 21C12.4477 21 12 20.5523 12 20C12 19.4477 12.4477 19 13 19C13.5523 19 14 19.4477 14 20Z" fill="#6B7280"/>
<path d="M16 18C16.5523 18 17 17.5523 17 17C17 16.4477 16.5523 16 16 16C15.4477 16 15 16.4477 15 17C15 17.5523 15.4477 18 16 18Z" fill="#6B7280"/>
<path d="M17 20C17 20.5523 16.5523 21 16 21C15.4477 21 15 20.5523 15 20C15 19.4477 15.4477 19 16 19C16.5523 19 17 19.4477 17 20Z" fill="#6B7280"/>
<path d="M19 18C19.5523 18 20 17.5523 20 17C20 16.4477 19.5523 16 19 16C18.4477 16 18 16.4477 18 17C18 17.5523 18.4477 18 19 18Z" fill="#6B7280"/>
<path d="M17 14C17 14.5523 16.5523 15 16 15C15.4477 15 15 14.5523 15 14C15 13.4477 15.4477 13 16 13C16.5523 13 17 13.4477 17 14Z" fill="#6B7280"/>
<path d="M19 15C19.5523 15 20 14.5523 20 14C20 13.4477 19.5523 13 19 13C18.4477 13 18 13.4477 18 14C18 14.5523 18.4477 15 19 15Z" fill="#6B7280"/>
<path fill-rule="evenodd" clip-rule="evenodd" d="M6 0C6.55229 0 7 0.447715 7 1V3H19V1C19 0.447715 19.4477 0 20 0C20.5523 0 21 0.447715 21 1V3H22C24.2091 3 26 4.79086 26 7V22C26 24.2091 24.2091 26 22 26H4C1.79086 26 0 24.2091 0 22V7C0 4.79086 1.79086 3 4 3H5V1C5 0.447715 5.44772 0 6 0ZM24 12C24 10.8954 23.1046 10 22 10H4C2.89543 10 2 10.8954 2 12V22C2 23.1046 2.89543 24 4 24H22C23.1046 24 24 23.1046 24 22V12Z" fill="#6B7280"/>
</svg>
