<svg width="21" height="20" viewBox="0 0 21 20" fill="none" xmlns="http://www.w3.org/2000/svg">
<mask id="path-1-inside-1_3135_36" fill="white">
<path fill-rule="evenodd" clip-rule="evenodd" d="M17.5863 2.90644C15.7062 1.03311 13.2057 0.00111111 10.5419 0C5.05291 0 0.585744 4.44556 0.583511 9.90978C0.582841 11.6564 1.04126 13.3613 1.91277 14.8644L0.5 20L5.77906 18.6218C7.23358 19.4113 8.8712 19.8276 10.5378 19.828H10.5419C10.5416 19.828 10.5421 19.828 10.5419 19.828C16.0302 19.828 20.4978 15.382 20.5 9.91756C20.5011 7.26956 19.4664 4.77978 17.5863 2.90644ZM6.49783 10.2704C6.37346 10.1051 5.48186 8.92778 5.48186 7.70889C5.48186 6.49 6.12471 5.89089 6.35269 5.64311C6.58068 5.39533 6.85041 5.33333 7.01632 5.33333C7.18222 5.33333 7.34835 5.33489 7.49327 5.342C7.646 5.34978 7.8512 5.28422 8.05306 5.76711C8.2605 6.26289 8.75799 7.482 8.82029 7.60578C8.88259 7.72978 8.9239 7.87422 8.84106 8.03956C8.75821 8.20467 8.71668 8.308 8.59231 8.45267C8.46794 8.59733 8.33106 8.77556 8.21897 8.88644C8.09437 9.01 7.96464 9.144 8.10978 9.39178C8.25491 9.63978 8.7542 10.4507 9.49396 11.1073C10.4443 11.9511 11.2461 12.2124 11.4949 12.3364C11.7436 12.4604 11.8888 12.4398 12.0339 12.2744C12.179 12.1091 12.656 11.5513 12.8219 11.3036C12.9878 11.0558 13.1537 11.0971 13.3817 11.1796C13.6099 11.2622 14.8331 11.8613 15.0818 11.9851C15.3306 12.1091 15.4965 12.1711 15.5588 12.2744C15.6211 12.3778 15.6211 12.8736 15.4136 13.452C15.2062 14.0304 14.2121 14.5584 13.734 14.6293C13.3053 14.6931 12.7629 14.7198 12.1668 14.5311C11.8055 14.4171 11.3419 14.2647 10.7482 14.0096C8.25246 12.9369 6.62243 10.4358 6.49783 10.2704Z"/>
</mask>
<path fill-rule="evenodd" clip-rule="evenodd" d="M17.5863 2.90644C15.7062 1.03311 13.2057 0.00111111 10.5419 0C5.05291 0 0.585744 4.44556 0.583511 9.90978C0.582841 11.6564 1.04126 13.3613 1.91277 14.8644L0.5 20L5.77906 18.6218C7.23358 19.4113 8.8712 19.8276 10.5378 19.828H10.5419C10.5416 19.828 10.5421 19.828 10.5419 19.828C16.0302 19.828 20.4978 15.382 20.5 9.91756C20.5011 7.26956 19.4664 4.77978 17.5863 2.90644ZM6.49783 10.2704C6.37346 10.1051 5.48186 8.92778 5.48186 7.70889C5.48186 6.49 6.12471 5.89089 6.35269 5.64311C6.58068 5.39533 6.85041 5.33333 7.01632 5.33333C7.18222 5.33333 7.34835 5.33489 7.49327 5.342C7.646 5.34978 7.8512 5.28422 8.05306 5.76711C8.2605 6.26289 8.75799 7.482 8.82029 7.60578C8.88259 7.72978 8.9239 7.87422 8.84106 8.03956C8.75821 8.20467 8.71668 8.308 8.59231 8.45267C8.46794 8.59733 8.33106 8.77556 8.21897 8.88644C8.09437 9.01 7.96464 9.144 8.10978 9.39178C8.25491 9.63978 8.7542 10.4507 9.49396 11.1073C10.4443 11.9511 11.2461 12.2124 11.4949 12.3364C11.7436 12.4604 11.8888 12.4398 12.0339 12.2744C12.179 12.1091 12.656 11.5513 12.8219 11.3036C12.9878 11.0558 13.1537 11.0971 13.3817 11.1796C13.6099 11.2622 14.8331 11.8613 15.0818 11.9851C15.3306 12.1091 15.4965 12.1711 15.5588 12.2744C15.6211 12.3778 15.6211 12.8736 15.4136 13.452C15.2062 14.0304 14.2121 14.5584 13.734 14.6293C13.3053 14.6931 12.7629 14.7198 12.1668 14.5311C11.8055 14.4171 11.3419 14.2647 10.7482 14.0096C8.25246 12.9369 6.62243 10.4358 6.49783 10.2704Z" fill="#006414"/>
<path d="M10.5419 0L10.5419 -0.0733333H10.5419V0ZM0.583511 9.90978L0.510178 9.90975L0.510178 9.90975L0.583511 9.90978ZM1.91277 14.8644L1.98347 14.8839L1.99163 14.8543L1.97621 14.8277L1.91277 14.8644ZM0.5 20L0.429293 19.9805L0.395594 20.103L0.518524 20.071L0.5 20ZM5.77906 18.6218L5.81404 18.5573L5.78857 18.5435L5.76053 18.5508L5.77906 18.6218ZM10.5378 19.828L10.5378 19.9013H10.5378V19.828ZM20.5 9.91756L20.4267 9.91753V9.91753L20.5 9.91756ZM6.49783 10.2704L6.43923 10.3145L6.43927 10.3146L6.49783 10.2704ZM7.49327 5.342L7.497 5.26876L7.49686 5.26875L7.49327 5.342ZM8.05306 5.76711L7.9854 5.79539L7.98541 5.79542L8.05306 5.76711ZM8.82029 7.60578L8.88582 7.57286L8.88579 7.57281L8.82029 7.60578ZM8.84106 8.03956L8.9066 8.07244L8.90662 8.07241L8.84106 8.03956ZM8.21897 8.88644L8.16739 8.83431L8.16733 8.83437L8.21897 8.88644ZM8.10978 9.39178L8.17307 9.35474L8.17305 9.35471L8.10978 9.39178ZM9.49396 11.1073L9.54265 11.0525L9.54264 11.0525L9.49396 11.1073ZM13.3817 11.1796L13.4067 11.1106L13.4066 11.1106L13.3817 11.1796ZM15.0818 11.9851L15.1145 11.9195L15.1145 11.9195L15.0818 11.9851ZM13.734 14.6293L13.7233 14.5568L13.7233 14.5568L13.734 14.6293ZM12.1668 14.5311L12.1889 14.4612L12.1888 14.4612L12.1668 14.5311ZM10.7482 14.0096L10.7192 14.0769L10.7192 14.0769L10.7482 14.0096ZM17.638 2.8545C15.7441 0.967426 13.2251 -0.0722142 10.5419 -0.0733333L10.5418 0.0733333C13.1864 0.0744364 15.6682 1.0988 17.5345 2.95839L17.638 2.8545ZM10.5419 -0.0733333C5.01273 -0.0733333 0.512427 4.40473 0.510178 9.90975L0.656844 9.90981C0.659061 4.48638 5.09309 0.0733333 10.5419 0.0733333V-0.0733333ZM0.510178 9.90975C0.509503 11.6693 0.971319 13.3869 1.84932 14.9012L1.97621 14.8277C1.1112 13.3358 0.656179 11.6436 0.656844 9.90981L0.510178 9.90975ZM1.84206 14.845L0.429293 19.9805L0.570707 20.0195L1.98347 14.8839L1.84206 14.845ZM0.518524 20.071L5.79758 18.6927L5.76053 18.5508L0.481476 19.929L0.518524 20.071ZM5.74407 18.6862C7.20936 19.4816 8.85901 19.9009 10.5378 19.9013L10.5379 19.7547C8.88339 19.7542 7.2578 19.341 5.81404 18.5573L5.74407 18.6862ZM10.5378 19.9013H10.5419V19.7547H10.5378V19.9013ZM10.5419 19.7547H10.5419C10.5419 19.7547 10.5419 19.7547 10.5419 19.7547C10.5419 19.7547 10.5419 19.7547 10.5419 19.7547H10.5419C10.5419 19.7547 10.5419 19.7547 10.5419 19.7547C10.5419 19.7547 10.5419 19.7547 10.5419 19.7547H10.5419H10.5419C10.5419 19.7547 10.5419 19.7547 10.5419 19.7547C10.5419 19.7547 10.5419 19.7547 10.5419 19.7547H10.5419H10.5419C10.5419 19.7547 10.5419 19.7547 10.5419 19.7547C10.5419 19.7547 10.5419 19.7547 10.5419 19.7547C10.5419 19.7547 10.5419 19.7547 10.5418 19.7547C10.5418 19.7547 10.5418 19.7547 10.5418 19.7547C10.5418 19.7547 10.5418 19.7547 10.5418 19.7547H10.5418H10.5418H10.5418H10.5418C10.5418 19.7547 10.5418 19.7547 10.5418 19.7547C10.5418 19.7547 10.5418 19.7547 10.5418 19.7547C10.5418 19.7547 10.5418 19.7547 10.5418 19.7547C10.5418 19.7547 10.5418 19.7547 10.5418 19.7547C10.5418 19.7547 10.5418 19.7547 10.5418 19.7547C10.5418 19.7547 10.5418 19.7547 10.5418 19.7547C10.5418 19.7547 10.5418 19.7547 10.5418 19.7547H10.5418H10.5418H10.5418H10.5418C10.5418 19.7547 10.5418 19.7547 10.5418 19.7547C10.5418 19.7547 10.5418 19.7547 10.5418 19.7547C10.5418 19.7547 10.5418 19.7547 10.5418 19.7547C10.5418 19.7547 10.5418 19.7547 10.5418 19.7547H10.5418C10.5418 19.7547 10.5418 19.7547 10.5418 19.7547C10.5418 19.7547 10.5418 19.7547 10.5418 19.7547C10.5418 19.7547 10.5418 19.7547 10.5418 19.7547H10.5418C10.5418 19.7547 10.5418 19.7547 10.5418 19.7547H10.5418C10.5418 19.7547 10.5418 19.7547 10.5418 19.7547C10.5418 19.7547 10.5418 19.7547 10.5418 19.7547C10.5418 19.7547 10.5418 19.7547 10.5418 19.7547H10.5418C10.5418 19.7547 10.5418 19.7547 10.5418 19.7547C10.5418 19.7547 10.5418 19.7547 10.5418 19.7547H10.5418C10.5418 19.7547 10.5418 19.7547 10.5418 19.7547C10.5418 19.7547 10.5418 19.7547 10.5418 19.7547C10.5418 19.7547 10.5418 19.7547 10.5418 19.7547C10.5418 19.7547 10.5418 19.7547 10.5418 19.7547H10.5418C10.5418 19.7547 10.5418 19.7547 10.5418 19.7547C10.5418 19.7547 10.5418 19.7547 10.5418 19.7547C10.5418 19.7547 10.5418 19.7547 10.5418 19.7547C10.5418 19.7547 10.5418 19.7547 10.5418 19.7547C10.5418 19.7547 10.5418 19.7547 10.5418 19.7547C10.5418 19.7547 10.5418 19.7547 10.5418 19.7547H10.5418H10.5418C10.5418 19.828 10.5418 19.9013 10.5418 19.9013H10.5418C10.5418 19.9013 10.5418 19.9013 10.5418 19.9013C10.5418 19.9013 10.5418 19.9013 10.5418 19.9013C10.5418 19.9013 10.5418 19.9013 10.5418 19.9013C10.5418 19.9013 10.5418 19.9013 10.5418 19.9013H10.5418H10.5418H10.5418H10.5418C10.5418 19.9013 10.5418 19.9013 10.5418 19.9013C10.5418 19.9013 10.5418 19.9013 10.5418 19.9013C10.5418 19.9013 10.5418 19.9013 10.5418 19.9013H10.5418C10.5418 19.9013 10.5418 19.9013 10.5418 19.9013C10.5418 19.9013 10.5418 19.9013 10.5418 19.9013H10.5418H10.5418H10.5418C10.5418 19.9013 10.5418 19.9013 10.5418 19.9013C10.5418 19.9013 10.5418 19.9013 10.5418 19.9013H10.5418H10.5418H10.5418H10.5418C10.5418 19.9013 10.5418 19.9013 10.5418 19.9013C10.5418 19.9013 10.5418 19.9013 10.5418 19.9013C10.5418 19.9013 10.5418 19.9013 10.5418 19.9013H10.5418H10.5418C10.5418 19.9013 10.5418 19.9013 10.5418 19.9013C10.5418 19.9013 10.5418 19.9013 10.5418 19.9013H10.5418C10.5418 19.9013 10.5418 19.9013 10.5418 19.9013C10.5418 19.9013 10.5418 19.9013 10.5418 19.9013H10.5418C10.5418 19.9013 10.5418 19.9013 10.5418 19.9013C10.5418 19.9013 10.5418 19.9013 10.5418 19.9013H10.5418C10.5418 19.9013 10.5418 19.9013 10.5418 19.9013H10.5418C10.5418 19.9013 10.5418 19.9013 10.5418 19.9013C10.5418 19.9013 10.5418 19.9013 10.5418 19.9013C10.5418 19.9013 10.5418 19.9013 10.5418 19.9013C10.5418 19.9013 10.5418 19.9013 10.5418 19.9013H10.5418C10.5418 19.9013 10.5418 19.9013 10.5418 19.9013H10.5418C10.5418 19.9013 10.5418 19.9013 10.5418 19.9013H10.5419C10.5419 19.9013 10.5419 19.9013 10.5419 19.9013H10.5419C10.5419 19.9013 10.5419 19.9013 10.5419 19.9013H10.5419C10.5419 19.9013 10.5419 19.9013 10.5419 19.9013H10.5419C10.5419 19.9013 10.5419 19.9013 10.5419 19.9013H10.5419C10.5419 19.9013 10.5419 19.9013 10.5419 19.9013C10.5419 19.9013 10.5419 19.9013 10.5419 19.9013C10.5419 19.9013 10.5419 19.9013 10.5419 19.9013C10.5419 19.9013 10.5419 19.9013 10.5419 19.9013C10.5419 19.9013 10.5419 19.9013 10.5419 19.9013C10.5419 19.9013 10.5419 19.9013 10.5419 19.9013H10.5419C10.5419 19.9013 10.5419 19.9013 10.5419 19.9013H10.5419C10.5419 19.9013 10.5419 19.9013 10.5419 19.9013H10.5419C10.5419 19.9013 10.5419 19.9013 10.5419 19.9013H10.5419C10.5419 19.9013 10.5419 19.9013 10.5419 19.9013C10.5419 19.9013 10.5419 19.9013 10.5419 19.9013C10.5419 19.9013 10.5419 19.9013 10.5419 19.9013C10.5419 19.9013 10.5419 19.9013 10.5419 19.9013C10.5419 19.9013 10.5419 19.9013 10.5419 19.9013C10.5419 19.9013 10.5419 19.9013 10.5419 19.9013H10.5419C10.5419 19.9013 10.5419 19.9013 10.5419 19.9013H10.5419C10.5419 19.9013 10.5419 19.9013 10.5419 19.9013H10.5419C10.5419 19.9013 10.5419 19.9013 10.5419 19.9013H10.5419C10.5419 19.9013 10.5419 19.9013 10.5419 19.9013H10.5419C10.5419 19.9013 10.5419 19.9013 10.5419 19.9013H10.5419C10.5419 19.9013 10.5419 19.9013 10.5419 19.9013H10.5419C10.5419 19.9013 10.5419 19.9013 10.5419 19.9013H10.5419C10.5419 19.9013 10.5419 19.9013 10.5419 19.9013C10.5419 19.9013 10.5419 19.9013 10.5419 19.9013C10.5419 19.9013 10.5419 19.9013 10.5419 19.9013C10.5419 19.9013 10.5419 19.9013 10.5419 19.9013H10.5419C10.5419 19.9013 10.5419 19.9013 10.5419 19.9013H10.5419C10.5419 19.9013 10.5419 19.9013 10.5419 19.9013C10.5419 19.9013 10.5419 19.9013 10.5419 19.9013H10.5419C10.5419 19.9013 10.5419 19.9013 10.5419 19.9013C10.5419 19.9013 10.5419 19.9013 10.5419 19.9013H10.5419C10.5419 19.9013 10.5419 19.9013 10.5419 19.9013C10.5419 19.9013 10.5419 19.9013 10.5419 19.9013C10.5419 19.9013 10.5419 19.9013 10.5419 19.9013H10.5419C10.5419 19.9013 10.5419 19.9013 10.5419 19.9013C10.5419 19.9013 10.5419 19.9013 10.5419 19.9013C10.5419 19.9013 10.5419 19.9013 10.5419 19.9013C10.5419 19.9013 10.5419 19.9013 10.5419 19.9013C10.5419 19.9013 10.5419 19.9013 10.5419 19.9013H10.5419H10.5419H10.5419H10.5419H10.5419C10.5419 19.9013 10.5419 19.9013 10.5419 19.9013C10.5419 19.9013 10.5419 19.9013 10.5419 19.9013C10.5419 19.9013 10.5419 19.9013 10.5419 19.9013H10.5419C10.5419 19.9013 10.5419 19.9013 10.5419 19.9013C10.5419 19.9013 10.5419 19.9013 10.5419 19.9013C10.5419 19.9013 10.5419 19.9013 10.5419 19.9013H10.5419C10.5419 19.9013 10.5419 19.9013 10.5419 19.9013C10.5419 19.9013 10.5419 19.9013 10.5419 19.9013C10.5419 19.9013 10.5419 19.9013 10.5419 19.9013H10.5419C10.5419 19.9013 10.5419 19.9013 10.5419 19.9013H10.5419C10.5419 19.9013 10.5419 19.9013 10.5419 19.9013C10.5419 19.9013 10.5419 19.9013 10.5419 19.9013C10.5419 19.9013 10.5419 19.9013 10.5419 19.9013C10.5419 19.9013 10.5419 19.828 10.5419 19.7547H10.5419C10.5419 19.7547 10.5419 19.7547 10.5419 19.7547H10.5419H10.5419C10.5419 19.7547 10.5419 19.7547 10.5419 19.7547H10.5419C10.5419 19.7547 10.5419 19.7547 10.5419 19.7547C10.5419 19.7547 10.5419 19.7547 10.5419 19.7547C10.5419 19.7547 10.5419 19.7547 10.5419 19.7547H10.5419H10.5419C10.5419 19.7547 10.5419 19.7547 10.5419 19.7547H10.5419H10.5419C10.5419 19.7547 10.5419 19.7547 10.5419 19.7547C10.5419 19.7547 10.5419 19.7547 10.5419 19.7547H10.5419C10.5419 19.7547 10.5419 19.7547 10.5419 19.7547C10.5419 19.7547 10.5419 19.7547 10.5419 19.7547C10.5419 19.7547 10.5419 19.7547 10.5419 19.7547C10.5419 19.7547 10.5419 19.7547 10.5419 19.7547C10.5419 19.7547 10.5419 19.7547 10.5419 19.7547H10.5419C10.5419 19.7547 10.5419 19.7547 10.5419 19.7547C10.5419 19.7547 10.5419 19.7547 10.5419 19.7547H10.5419C10.5419 19.7547 10.5419 19.7547 10.5419 19.7547C10.5419 19.7547 10.5419 19.7547 10.5419 19.7547C10.5419 19.7547 10.5419 19.7547 10.5419 19.7547H10.5419H10.5419C10.5419 19.7547 10.5419 19.7547 10.5419 19.7547C10.5419 19.7547 10.5419 19.7547 10.5419 19.7547C10.5419 19.7547 10.5419 19.7547 10.5419 19.7547C10.5419 19.7547 10.5419 19.7547 10.5419 19.7547C10.5419 19.7547 10.5419 19.7547 10.5419 19.7547C10.5419 19.7547 10.5419 19.7547 10.5419 19.7547C10.5419 19.7547 10.5419 19.7547 10.5419 19.7547C10.5419 19.7547 10.5419 19.7547 10.5419 19.7547C10.5419 19.7547 10.5419 19.7547 10.5419 19.7547C10.5419 19.7547 10.5419 19.7547 10.5419 19.7547C10.5419 19.7547 10.5419 19.7547 10.5419 19.7547C10.5419 19.7547 10.5419 19.7547 10.5419 19.7547C10.5419 19.7547 10.5419 19.7547 10.5419 19.7547C10.5419 19.7547 10.5419 19.7547 10.5419 19.7547C10.5419 19.7547 10.5419 19.7547 10.5419 19.7547C10.5419 19.7547 10.5419 19.7547 10.5419 19.7547H10.5419H10.5419C10.5419 19.7547 10.5419 19.7547 10.5419 19.7547C10.5419 19.7547 10.5419 19.7547 10.5419 19.7547C10.5419 19.7547 10.5419 19.7547 10.5419 19.7547C10.5419 19.7547 10.5419 19.7547 10.5419 19.7547H10.5419C10.5419 19.7547 10.5419 19.7547 10.5419 19.7547C10.5419 19.7547 10.5419 19.7547 10.5419 19.7547C10.5419 19.7547 10.5419 19.7547 10.5419 19.7547H10.5419C10.5419 19.7547 10.5419 19.7547 10.5419 19.7547C10.5419 19.7547 10.5419 19.7547 10.5419 19.7547H10.5419C10.5419 19.7547 10.5419 19.7547 10.5419 19.7547C10.5419 19.7547 10.5419 19.7547 10.5419 19.7547V19.9013C10.5419 19.9013 10.5419 19.9013 10.5419 19.9013C10.5419 19.9013 10.5419 19.9013 10.5419 19.9013H10.5419C10.5419 19.9013 10.5419 19.9013 10.5419 19.9013C10.5419 19.9013 10.5419 19.9013 10.5419 19.9013H10.5419C10.5419 19.9013 10.5419 19.9013 10.5419 19.9013C10.5419 19.9013 10.5419 19.9013 10.5419 19.9013C10.5419 19.9013 10.5419 19.9013 10.5419 19.9013H10.5419C10.5419 19.9013 10.5419 19.9013 10.5419 19.9013C10.5419 19.9013 10.5419 19.9013 10.5419 19.9013C10.5419 19.9013 10.5419 19.9013 10.5419 19.9013C10.5419 19.9013 10.5419 19.9013 10.5419 19.9013H10.5419H10.5419C10.5419 19.9013 10.5419 19.9013 10.5419 19.9013C10.5419 19.9013 10.5419 19.9013 10.5419 19.9013C10.5419 19.9013 10.5419 19.9013 10.5419 19.9013C10.5419 19.9013 10.5419 19.9013 10.5419 19.9013C10.5419 19.9013 10.5419 19.9013 10.5419 19.9013C10.5419 19.9013 10.5419 19.9013 10.5419 19.9013C10.5419 19.9013 10.5419 19.9013 10.5419 19.9013C10.5419 19.9013 10.5419 19.9013 10.5419 19.9013C10.5419 19.9013 10.5419 19.9013 10.5419 19.9013C10.5419 19.9013 10.5419 19.9013 10.5419 19.9013C10.5419 19.9013 10.5419 19.9013 10.5419 19.9013C10.5419 19.9013 10.5419 19.9013 10.5419 19.9013C10.5419 19.9013 10.5419 19.9013 10.5419 19.9013C10.5419 19.9013 10.5419 19.9013 10.5419 19.9013C10.5419 19.9013 10.5419 19.9013 10.5419 19.9013C10.5419 19.9013 10.5419 19.9013 10.5419 19.9013H10.5419H10.5419C10.5419 19.9013 10.5419 19.9013 10.5419 19.9013C10.5419 19.9013 10.5419 19.9013 10.5419 19.9013C10.5419 19.9013 10.5419 19.9013 10.5419 19.9013H10.5419C10.5419 19.9013 10.5419 19.9013 10.5419 19.9013C10.5419 19.9013 10.5419 19.9013 10.5419 19.9013H10.5419C10.5419 19.9013 10.5419 19.9013 10.5419 19.9013C10.5419 19.9013 10.5419 19.9013 10.5419 19.9013C10.5419 19.9013 10.5419 19.9013 10.5419 19.9013C10.5419 19.9013 10.5419 19.9013 10.5419 19.9013C10.5419 19.9013 10.5419 19.9013 10.5419 19.9013H10.5419C10.5419 19.9013 10.5419 19.9013 10.5419 19.9013C10.5419 19.9013 10.5419 19.9013 10.5419 19.9013H10.5419H10.5419C10.5419 19.9013 10.5419 19.9013 10.5419 19.9013H10.5419H10.5419C10.5419 19.9013 10.5419 19.9013 10.5419 19.9013C10.5419 19.9013 10.5419 19.9013 10.5419 19.9013C10.5419 19.9013 10.5419 19.9013 10.5419 19.9013H10.5419C10.5419 19.9013 10.5419 19.9013 10.5419 19.9013H10.5419H10.5419C10.5419 19.9013 10.5419 19.9013 10.5419 19.9013H10.5419C10.5419 19.828 10.5419 19.7547 10.5419 19.7547C10.5419 19.7547 10.5419 19.7547 10.5419 19.7547C10.5419 19.7547 10.5419 19.7547 10.5419 19.7547C10.5419 19.7547 10.5419 19.7547 10.5419 19.7547H10.5419C10.5419 19.7547 10.5419 19.7547 10.5419 19.7547H10.5419C10.5419 19.7547 10.5419 19.7547 10.5419 19.7547C10.5419 19.7547 10.5419 19.7547 10.5419 19.7547C10.5419 19.7547 10.5419 19.7547 10.5419 19.7547H10.5419C10.5419 19.7547 10.5419 19.7547 10.5419 19.7547C10.5419 19.7547 10.5419 19.7547 10.5419 19.7547C10.5419 19.7547 10.5419 19.7547 10.5419 19.7547H10.5419C10.5419 19.7547 10.5419 19.7547 10.5419 19.7547C10.5419 19.7547 10.5419 19.7547 10.5419 19.7547C10.5419 19.7547 10.5419 19.7547 10.5419 19.7547H10.5419H10.5419H10.5419H10.5419H10.5419C10.5419 19.7547 10.5419 19.7547 10.5419 19.7547C10.5419 19.7547 10.5419 19.7547 10.5419 19.7547C10.5419 19.7547 10.5419 19.7547 10.5419 19.7547C10.5419 19.7547 10.5419 19.7547 10.5419 19.7547C10.5419 19.7547 10.5419 19.7547 10.5419 19.7547H10.5419C10.5419 19.7547 10.5419 19.7547 10.5419 19.7547C10.5419 19.7547 10.5419 19.7547 10.5419 19.7547C10.5419 19.7547 10.5419 19.7547 10.5419 19.7547H10.5419C10.5419 19.7547 10.5419 19.7547 10.5419 19.7547C10.5419 19.7547 10.5419 19.7547 10.5419 19.7547H10.5419C10.5419 19.7547 10.5419 19.7547 10.5419 19.7547C10.5419 19.7547 10.5419 19.7547 10.5419 19.7547H10.5419C10.5419 19.7547 10.5419 19.7547 10.5419 19.7547H10.5419C10.5419 19.7547 10.5419 19.7547 10.5419 19.7547C10.5419 19.7547 10.5419 19.7547 10.5419 19.7547C10.5419 19.7547 10.5419 19.7547 10.5419 19.7547C10.5419 19.7547 10.5419 19.7547 10.5419 19.7547H10.5419C10.5419 19.7547 10.5419 19.7547 10.5419 19.7547H10.5419C10.5419 19.7547 10.5419 19.7547 10.5419 19.7547H10.5419C10.5419 19.7547 10.5419 19.7547 10.5419 19.7547H10.5419C10.5419 19.7547 10.5419 19.7547 10.5419 19.7547H10.5419C10.5419 19.7547 10.5419 19.7547 10.5419 19.7547H10.5419C10.5419 19.7547 10.5419 19.7547 10.5419 19.7547H10.5419C10.5419 19.7547 10.5419 19.7547 10.5419 19.7547H10.5419C10.5419 19.7547 10.5419 19.7547 10.5419 19.7547C10.5419 19.7547 10.5419 19.7547 10.5419 19.7547C10.5419 19.7547 10.5419 19.7547 10.5419 19.7547C10.5419 19.7547 10.5419 19.7547 10.5419 19.7547C10.5419 19.7547 10.5419 19.7547 10.5419 19.7547C10.5419 19.7547 10.5419 19.7547 10.5419 19.7547H10.5419C10.5419 19.7547 10.5419 19.7547 10.5419 19.7547H10.5419C10.5419 19.7547 10.5419 19.7547 10.5419 19.7547H10.5419C10.5419 19.7547 10.5419 19.7547 10.5419 19.7547H10.5419C10.5419 19.7547 10.5419 19.7547 10.5419 19.7547C10.5419 19.7547 10.5419 19.7547 10.5419 19.7547C10.5419 19.7547 10.5419 19.7547 10.5419 19.7547C10.5419 19.7547 10.5419 19.7547 10.5419 19.7547C10.5419 19.7547 10.5419 19.7547 10.5419 19.7547C10.5419 19.7547 10.5419 19.7547 10.5419 19.7547H10.5419C10.5419 19.7547 10.5419 19.7547 10.5419 19.7547H10.5419C10.5419 19.7547 10.5419 19.7547 10.5419 19.7547H10.5419C10.5419 19.7547 10.5419 19.7547 10.5419 19.7547H10.5419C10.5419 19.7547 10.5419 19.7547 10.5419 19.7547H10.5418C10.5418 19.7547 10.5418 19.7547 10.5418 19.7547H10.5418C10.5418 19.7547 10.5418 19.7547 10.5418 19.7547H10.5418C10.5418 19.7547 10.5418 19.7547 10.5418 19.7547C10.5418 19.7547 10.5418 19.7547 10.5418 19.7547C10.5418 19.7547 10.5418 19.7547 10.5418 19.7547C10.5418 19.7547 10.5418 19.7547 10.5418 19.7547H10.5418C10.5418 19.7547 10.5418 19.7547 10.5418 19.7547H10.5418C10.5418 19.7547 10.5418 19.7547 10.5418 19.7547C10.5418 19.7547 10.5418 19.7547 10.5418 19.7547H10.5418C10.5418 19.7547 10.5418 19.7547 10.5418 19.7547C10.5418 19.7547 10.5418 19.7547 10.5418 19.7547H10.5418C10.5418 19.7547 10.5418 19.7547 10.5418 19.7547C10.5418 19.7547 10.5418 19.7547 10.5418 19.7547H10.5418H10.5418C10.5418 19.7547 10.5418 19.7547 10.5418 19.7547C10.5418 19.7547 10.5418 19.7547 10.5418 19.7547C10.5418 19.7547 10.5418 19.7547 10.5418 19.7547H10.5418H10.5418H10.5418H10.5418C10.5418 19.7547 10.5418 19.7547 10.5418 19.7547C10.5418 19.7547 10.5418 19.7547 10.5418 19.7547H10.5418H10.5418H10.5418C10.5418 19.7547 10.5418 19.7547 10.5418 19.7547C10.5418 19.7547 10.5418 19.7547 10.5418 19.7547H10.5418C10.5418 19.7547 10.5418 19.7547 10.5418 19.7547C10.5418 19.7547 10.5418 19.7547 10.5418 19.7547C10.5418 19.7547 10.5418 19.7547 10.5418 19.7547H10.5418H10.5418H10.5418H10.5418C10.5418 19.7547 10.5418 19.7547 10.5418 19.7547C10.5418 19.7547 10.5418 19.7547 10.5418 19.7547C10.5418 19.7547 10.5418 19.7547 10.5418 19.7547C10.5418 19.7547 10.5418 19.7547 10.5418 19.7547H10.5418C10.5418 19.7547 10.5418 19.828 10.5418 19.9013H10.5418H10.5418C10.5418 19.9013 10.5418 19.9013 10.5418 19.9013C10.5418 19.9013 10.5418 19.9013 10.5418 19.9013C10.5418 19.9013 10.5418 19.9013 10.5418 19.9013C10.5418 19.9013 10.5418 19.9013 10.5418 19.9013C10.5418 19.9013 10.5418 19.9013 10.5418 19.9013C10.5418 19.9013 10.5418 19.9013 10.5418 19.9013H10.5418C10.5418 19.9013 10.5418 19.9013 10.5418 19.9013C10.5418 19.9013 10.5418 19.9013 10.5418 19.9013C10.5418 19.9013 10.5418 19.9013 10.5418 19.9013C10.5418 19.9013 10.5418 19.9013 10.5418 19.9013H10.5418C10.5418 19.9013 10.5418 19.9013 10.5418 19.9013C10.5418 19.9013 10.5418 19.9013 10.5418 19.9013H10.5418C10.5418 19.9013 10.5418 19.9013 10.5418 19.9013C10.5418 19.9013 10.5418 19.9013 10.5418 19.9013C10.5418 19.9013 10.5418 19.9013 10.5418 19.9013H10.5418C10.5418 19.9013 10.5418 19.9013 10.5418 19.9013H10.5418C10.5418 19.9013 10.5418 19.9013 10.5418 19.9013C10.5418 19.9013 10.5418 19.9013 10.5418 19.9013C10.5418 19.9013 10.5418 19.9013 10.5418 19.9013H10.5418C10.5418 19.9013 10.5418 19.9013 10.5418 19.9013C10.5418 19.9013 10.5418 19.9013 10.5418 19.9013C10.5418 19.9013 10.5418 19.9013 10.5418 19.9013C10.5418 19.9013 10.5418 19.9013 10.5418 19.9013H10.5418H10.5418H10.5418H10.5418C10.5418 19.9013 10.5418 19.9013 10.5418 19.9013C10.5418 19.9013 10.5418 19.9013 10.5418 19.9013C10.5418 19.9013 10.5418 19.9013 10.5418 19.9013C10.5418 19.9013 10.5418 19.9013 10.5418 19.9013C10.5418 19.9013 10.5418 19.9013 10.5418 19.9013C10.5418 19.9013 10.5418 19.9013 10.5418 19.9013C10.5418 19.9013 10.5418 19.9013 10.5418 19.9013H10.5418H10.5418H10.5418H10.5418C10.5418 19.9013 10.5418 19.9013 10.5418 19.9013C10.5418 19.9013 10.5418 19.9013 10.5418 19.9013C10.5419 19.9013 10.5419 19.9013 10.5419 19.9013C10.5419 19.9013 10.5419 19.9013 10.5419 19.9013C10.5419 19.9013 10.5419 19.9013 10.5419 19.9013H10.5419H10.5419C10.5419 19.9013 10.5419 19.9013 10.5419 19.9013C10.5419 19.9013 10.5419 19.9013 10.5419 19.9013H10.5419H10.5419C10.5419 19.9013 10.5419 19.9013 10.5419 19.9013C10.5419 19.9013 10.5419 19.9013 10.5419 19.9013H10.5419C10.5419 19.9013 10.5419 19.9013 10.5419 19.9013C10.5419 19.9013 10.5419 19.9013 10.5419 19.9013H10.5419V19.7547ZM10.5419 19.9013C16.0703 19.9013 20.5711 15.4228 20.5733 9.91759L20.4267 9.91753C20.4245 15.3412 15.99 19.7547 10.5419 19.7547V19.9013ZM20.5733 9.91759C20.5745 7.25003 19.5319 4.74156 17.638 2.8545L17.5345 2.95839C19.4008 4.81799 20.4278 7.28908 20.4267 9.91753L20.5733 9.91759ZM6.55644 10.2264C6.495 10.1447 6.24405 9.81305 6.00853 9.35142C5.77247 8.88875 5.55519 8.30175 5.55519 7.70889H5.40852C5.40852 8.33491 5.63704 8.94602 5.87788 9.41808C6.11926 9.89117 6.3763 10.2309 6.43923 10.3145L6.55644 10.2264ZM5.55519 7.70889C5.55519 6.52071 6.17899 5.94021 6.40666 5.69276L6.29873 5.59346C6.07044 5.84157 5.40852 6.45929 5.40852 7.70889H5.55519ZM6.40666 5.69276C6.61836 5.46268 6.8671 5.40667 7.01632 5.40667V5.26C6.83372 5.26 6.54299 5.32799 6.29873 5.59346L6.40666 5.69276ZM7.01632 5.40667C7.18202 5.40667 7.34665 5.40823 7.48967 5.41525L7.49686 5.26875C7.35005 5.26155 7.18243 5.26 7.01632 5.26V5.40667ZM7.48954 5.41524C7.58397 5.42005 7.64532 5.40599 7.72355 5.44276C7.79563 5.47664 7.88773 5.56173 7.9854 5.79539L8.12072 5.73883C8.01654 5.4896 7.90511 5.36603 7.78594 5.31002C7.67291 5.2569 7.55529 5.27173 7.497 5.26876L7.48954 5.41524ZM7.98541 5.79542C8.08905 6.04313 8.26512 6.47146 8.42334 6.85397C8.58047 7.23387 8.72203 7.57366 8.75479 7.63875L8.88579 7.57281C8.85625 7.51412 8.71792 7.18246 8.55887 6.79792C8.4009 6.41599 8.2245 5.98687 8.12071 5.73881L7.98541 5.79542ZM8.75476 7.6387C8.81244 7.75349 8.84331 7.87136 8.77549 8.00671L8.90662 8.07241C9.00448 7.87709 8.95274 7.70606 8.88582 7.57286L8.75476 7.6387ZM8.77551 8.00667C8.691 8.1751 8.65381 8.26865 8.5367 8.40486L8.64792 8.50047C8.77956 8.34735 8.82543 8.23423 8.9066 8.07244L8.77551 8.00667ZM8.5367 8.40486C8.40764 8.55498 8.27688 8.726 8.16739 8.83431L8.27054 8.93858C8.38524 8.82511 8.52823 8.63969 8.64792 8.50047L8.5367 8.40486ZM8.16733 8.83437C8.10703 8.89417 8.03094 8.96941 7.99453 9.06686C7.95546 9.1714 7.96511 9.28991 8.0465 9.42884L8.17305 9.35471C8.1093 9.24587 8.11125 9.17348 8.13191 9.1182C8.15523 9.05582 8.20631 9.00227 8.2706 8.93852L8.16733 8.83437ZM8.04648 9.42882C8.19286 9.67893 8.69679 10.4978 9.44528 11.1622L9.54264 11.0525C8.8116 10.4036 8.31697 9.60063 8.17307 9.35474L8.04648 9.42882ZM9.44527 11.1622C10.4051 12.0144 11.2206 12.2817 11.4622 12.4021L11.5276 12.2708C11.2716 12.1432 10.4835 11.8878 9.54265 11.0525L9.44527 11.1622ZM11.4622 12.4021C11.5914 12.4665 11.7054 12.4996 11.812 12.4867C11.9216 12.4735 12.0094 12.4135 12.089 12.3228L11.9788 12.2261C11.9133 12.3007 11.8559 12.3337 11.7944 12.3411C11.73 12.3489 11.6471 12.3304 11.5276 12.2708L11.4622 12.4021ZM12.089 12.3228C12.2333 12.1585 12.7137 11.5969 12.8828 11.3444L12.761 11.2628C12.5983 11.5058 12.1248 12.0597 11.9788 12.2261L12.089 12.3228ZM12.8828 11.3444C12.9578 11.2323 13.0238 11.1978 13.0868 11.1906C13.1579 11.1825 13.2406 11.2065 13.3568 11.2485L13.4066 11.1106C13.2948 11.0702 13.1806 11.0323 13.0702 11.0449C12.9518 11.0583 12.8519 11.127 12.761 11.2628L12.8828 11.3444ZM13.3567 11.2485C13.4664 11.2882 13.8248 11.4564 14.1923 11.633C14.5574 11.8085 14.9251 11.989 15.0492 12.0508L15.1145 11.9195C14.9898 11.8574 14.6215 11.6765 14.2558 11.5008C13.8925 11.3262 13.5252 11.1535 13.4067 11.1106L13.3567 11.2485ZM15.0491 12.0507C15.1777 12.1149 15.276 12.1586 15.3551 12.2019C15.434 12.245 15.4756 12.2786 15.496 12.3123L15.6216 12.2366C15.5796 12.167 15.5072 12.1179 15.4254 12.0732C15.3438 12.0286 15.2347 11.9794 15.1145 11.9195L15.0491 12.0507ZM15.496 12.3123C15.502 12.3222 15.513 12.3573 15.5185 12.4264C15.5236 12.4916 15.5231 12.5772 15.5143 12.6787C15.4967 12.8817 15.4462 13.144 15.3446 13.4272L15.4827 13.4768C15.5886 13.1815 15.6417 12.9068 15.6604 12.6914C15.6698 12.5838 15.6706 12.4899 15.6647 12.4149C15.6591 12.344 15.6468 12.2783 15.6216 12.2366L15.496 12.3123ZM15.3446 13.4272C15.2494 13.6926 14.9668 13.9581 14.6359 14.1692C14.3068 14.3791 13.9486 14.5234 13.7233 14.5568L13.7448 14.7019C13.9975 14.6644 14.3754 14.5093 14.7148 14.2928C15.0523 14.0775 15.3704 13.7898 15.4827 13.4768L15.3446 13.4272ZM13.7233 14.5568C13.3006 14.6197 12.7705 14.6453 12.1889 14.4612L12.1446 14.601C12.7554 14.7943 13.31 14.7665 13.7448 14.7019L13.7233 14.5568ZM12.1888 14.4612C11.8286 14.3475 11.3677 14.1959 10.7771 13.9422L10.7192 14.0769C11.3162 14.3334 11.7823 14.4867 12.1447 14.601L12.1888 14.4612ZM10.7771 13.9422C8.30308 12.8788 6.68495 10.3969 6.5564 10.2263L6.43927 10.3146C6.55991 10.4747 8.20184 12.995 10.7192 14.0769L10.7771 13.9422Z" fill="#006414" mask="url(#path-1-inside-1_3135_36)"/>
</svg>
